<mxfile host="www.draw.io" modified="2019-12-23T08:59:37.543Z" agent="Mozilla/5.0 (Windows NT 10.0; Win64; x64) AppleWebKit/537.36 (KHTML, like Gecko) Chrome/79.0.3945.88 Safari/537.36" etag="vB69zGrY_vzfuacju8XG" version="12.4.3" type="github" pages="1">
  <diagram id="RR4zSp94GtStD52sdoUe" name="Page-1">
    <mxGraphModel dx="1038" dy="548" grid="1" gridSize="10" guides="1" tooltips="1" connect="1" arrows="1" fold="1" page="1" pageScale="1" pageWidth="850" pageHeight="1100" math="0" shadow="0">
      <root>
        <mxCell id="0"/>
        <mxCell id="1" parent="0"/>
        <mxCell id="gQzvtRsXfjEpurz_tfhh-1" value="" style="html=1;points=[];perimeter=orthogonalPerimeter;" parent="1" vertex="1">
          <mxGeometry x="640" y="589" width="10" height="86" as="geometry"/>
        </mxCell>
        <mxCell id="gQzvtRsXfjEpurz_tfhh-2" value="" style="html=1;points=[];perimeter=orthogonalPerimeter;" parent="1" vertex="1">
          <mxGeometry x="640" y="790" width="10" height="65" as="geometry"/>
        </mxCell>
        <mxCell id="gQzvtRsXfjEpurz_tfhh-3" value="" style="html=1;points=[];perimeter=orthogonalPerimeter;" parent="1" vertex="1">
          <mxGeometry x="391" y="530" width="10" height="187" as="geometry"/>
        </mxCell>
        <mxCell id="gQzvtRsXfjEpurz_tfhh-4" value="SearchCoach()" style="html=1;verticalAlign=bottom;endArrow=block;" parent="1" edge="1">
          <mxGeometry width="80" relative="1" as="geometry">
            <mxPoint x="400" y="590" as="sourcePoint"/>
            <mxPoint x="640" y="590" as="targetPoint"/>
          </mxGeometry>
        </mxCell>
        <mxCell id="gQzvtRsXfjEpurz_tfhh-5" value="" style="html=1;points=[];perimeter=orthogonalPerimeter;" parent="1" vertex="1">
          <mxGeometry x="391" y="760" width="10" height="127" as="geometry"/>
        </mxCell>
        <mxCell id="gQzvtRsXfjEpurz_tfhh-6" value="SelectCoach(CoachID)" style="html=1;verticalAlign=bottom;endArrow=block;" parent="1" edge="1">
          <mxGeometry width="80" relative="1" as="geometry">
            <mxPoint x="400" y="800" as="sourcePoint"/>
            <mxPoint x="640" y="800" as="targetPoint"/>
          </mxGeometry>
        </mxCell>
        <mxCell id="gQzvtRsXfjEpurz_tfhh-7" value="" style="html=1;points=[];perimeter=orthogonalPerimeter;" parent="1" vertex="1">
          <mxGeometry x="170" y="530" width="10" height="189" as="geometry"/>
        </mxCell>
        <mxCell id="gQzvtRsXfjEpurz_tfhh-8" value="Search For Coach" style="html=1;verticalAlign=bottom;endArrow=block;" parent="1" edge="1">
          <mxGeometry width="80" relative="1" as="geometry">
            <mxPoint x="184" y="530" as="sourcePoint"/>
            <mxPoint x="390" y="530" as="targetPoint"/>
          </mxGeometry>
        </mxCell>
        <mxCell id="gQzvtRsXfjEpurz_tfhh-9" value="" style="html=1;points=[];perimeter=orthogonalPerimeter;" parent="1" vertex="1">
          <mxGeometry x="170" y="760" width="10" height="119" as="geometry"/>
        </mxCell>
        <mxCell id="gQzvtRsXfjEpurz_tfhh-10" value="Select Specific Coach" style="html=1;verticalAlign=bottom;endArrow=block;" parent="1" edge="1">
          <mxGeometry width="80" relative="1" as="geometry">
            <mxPoint x="180" y="760" as="sourcePoint"/>
            <mxPoint x="395.5000000000002" y="760" as="targetPoint"/>
          </mxGeometry>
        </mxCell>
        <mxCell id="gQzvtRsXfjEpurz_tfhh-11" value="Enter Filtering Data for Search" style="html=1;verticalAlign=bottom;endArrow=block;exitX=1.36;exitY=0.166;exitDx=0;exitDy=0;exitPerimeter=0;" parent="1" source="gQzvtRsXfjEpurz_tfhh-7" edge="1">
          <mxGeometry width="80" relative="1" as="geometry">
            <mxPoint x="190" y="561" as="sourcePoint"/>
            <mxPoint x="390" y="561" as="targetPoint"/>
          </mxGeometry>
        </mxCell>
        <mxCell id="gQzvtRsXfjEpurz_tfhh-12" value="Return Founded Coaches" style="html=1;verticalAlign=bottom;endArrow=open;dashed=1;endSize=8;" parent="1" target="gQzvtRsXfjEpurz_tfhh-3" edge="1">
          <mxGeometry relative="1" as="geometry">
            <mxPoint x="640" y="670" as="sourcePoint"/>
            <mxPoint x="560" y="670" as="targetPoint"/>
          </mxGeometry>
        </mxCell>
        <mxCell id="gQzvtRsXfjEpurz_tfhh-13" value="Return Coach List Information" style="html=1;verticalAlign=bottom;endArrow=open;dashed=1;endSize=8;" parent="1" edge="1">
          <mxGeometry relative="1" as="geometry">
            <mxPoint x="390" y="710" as="sourcePoint"/>
            <mxPoint x="190" y="710" as="targetPoint"/>
          </mxGeometry>
        </mxCell>
        <mxCell id="gQzvtRsXfjEpurz_tfhh-14" value="Return Select Response Message" style="html=1;verticalAlign=bottom;endArrow=open;dashed=1;endSize=8;" parent="1" source="gQzvtRsXfjEpurz_tfhh-2" edge="1">
          <mxGeometry relative="1" as="geometry">
            <mxPoint x="640" y="878" as="sourcePoint"/>
            <mxPoint x="402.0000000000002" y="850" as="targetPoint"/>
            <Array as="points">
              <mxPoint x="520" y="850"/>
            </Array>
          </mxGeometry>
        </mxCell>
        <mxCell id="gQzvtRsXfjEpurz_tfhh-15" value="Show Select Response Message" style="html=1;verticalAlign=bottom;endArrow=open;dashed=1;endSize=8;entryX=1.04;entryY=1;entryDx=0;entryDy=0;entryPerimeter=0;" parent="1" target="gQzvtRsXfjEpurz_tfhh-9" edge="1">
          <mxGeometry relative="1" as="geometry">
            <mxPoint x="390" y="880" as="sourcePoint"/>
            <mxPoint x="310" y="880" as="targetPoint"/>
          </mxGeometry>
        </mxCell>
        <mxCell id="gQzvtRsXfjEpurz_tfhh-16" value="&amp;lt;&amp;lt;System&amp;gt;&amp;gt;" style="shape=umlLifeline;perimeter=lifelinePerimeter;whiteSpace=wrap;html=1;container=1;collapsible=0;recursiveResize=0;outlineConnect=0;" parent="1" vertex="1">
          <mxGeometry x="346" y="324" width="100" height="627" as="geometry"/>
        </mxCell>
        <mxCell id="gQzvtRsXfjEpurz_tfhh-32" value="Athlete" style="shape=umlLifeline;perimeter=lifelinePerimeter;whiteSpace=wrap;html=1;container=1;collapsible=0;recursiveResize=0;outlineConnect=0;" parent="1" vertex="1">
          <mxGeometry x="595" y="324" width="100" height="627" as="geometry"/>
        </mxCell>
        <mxCell id="gQzvtRsXfjEpurz_tfhh-33" value="Athlete" style="shape=umlLifeline;participant=umlActor;perimeter=lifelinePerimeter;whiteSpace=wrap;html=1;container=1;collapsible=0;recursiveResize=0;verticalAlign=top;spacingTop=36;labelBackgroundColor=#ffffff;outlineConnect=0;" parent="1" vertex="1">
          <mxGeometry x="165" y="324" width="20" height="626" as="geometry"/>
        </mxCell>
      </root>
    </mxGraphModel>
  </diagram>
</mxfile>
